<?xml version="1.0" standalone="no"?><!DOCTYPE svg PUBLIC "-//W3C//DTD SVG 1.1//EN" "http://www.w3.org/Graphics/SVG/1.1/DTD/svg11.dtd"><svg t="1746805267142" class="icon" viewBox="0 0 1024 1024" version="1.1" xmlns="http://www.w3.org/2000/svg" p-id="4450" xmlns:xlink="http://www.w3.org/1999/xlink" width="200" height="200"><path d="M312.113114 263.268835l52.543891 164.641467 172.642228-1.112665-140.115885 100.957012 54.211151 164.083395-139.281385-102.344367-139.281386 102.346106 54.211151-164.086873L86.926995 426.799375l172.642227 1.112666 52.543892-164.643206z m342.504529-58.959103l52.265725 23.082594L744.135063 184.285229l-5.559851 56.735511 52.543892 22.248095-55.601983 12.237583-5.003518 57.011939-28.911919-49.225019-55.601983 12.792176 37.808027-42.82893-29.190085-48.946852z m175.978486 145.173297l37.809766 42.82893 51.98582-23.36076-28.911919 49.226757 38.36436 42.272597-55.878411-12.237582-28.355585 49.503185-5.56159-56.733772-55.601983-11.959416 52.265725-22.804428-6.116183-56.735511z m32.528082 228.329399l16.679551 54.788346 57.269243 0.278167-46.705874 32.816679 17.237623 54.232013-45.593209-34.207511-46.427708 33.373012 18.626716-53.953847-46.149541-33.929345 57.269243 0.834499 17.792217-54.232013z m-216.569916 185.500468l54.21289 17.521006 32.804509-46.72326 0.278167 57.290105 54.489317 16.964672-54.211151 17.521005 0.556333 57.291844-33.640747-46.166927-53.931246 18.077338 33.360842-46.166927-33.918914-45.608856z" p-id="4451"></path></svg>