<svg xmlns="http://www.w3.org/2000/svg" width="48" height="48" id="tencent"><path d="m2.64 19.9-.26 1.15h3L4.1 27.99h1.52l1.22-6.94h3.04l.13-1.15H2.64z"></path><path d="M10.46 27.11a4.53 4.53 0 0 0 2.63-.85L13 27.43a5.58 5.58 0 0 1-2.58.67 2.48 2.48 0 0 1-2.76-2.53 3.44 3.44 0 0 1 3.64-3.27c3.09 0 2.21 3.27 2.21 3.27H9.1a1.3 1.3 0 0 0 1.36 1.54zm-1.28-2.46h3.09s.17-1.42-1.2-1.42a2.18 2.18 0 0 0-1.89 1.42zm20.94 2.46a4.53 4.53 0 0 0 2.63-.85l-.08 1.17a5.58 5.58 0 0 1-2.58.67 2.48 2.48 0 0 1-2.76-2.53A3.44 3.44 0 0 1 31 22.3c3.08 0 2.21 3.27 2.21 3.27h-4.45a1.3 1.3 0 0 0 1.36 1.54zm-1.28-2.46h3.09s.17-1.42-1.2-1.42a2.18 2.18 0 0 0-1.89 1.42zM15 22.42l1.39.81a2.66 2.66 0 0 1 2.12-.84 1.88 1.88 0 0 1 1.92 2c-.11.67-.63 3.58-.63 3.58h-1.61l.65-3.43a1 1 0 0 0-.1-.67 1 1 0 0 0-.95-.46 1.76 1.76 0 0 0-.69.14 1.6 1.6 0 0 0-.89 1.17L15.58 28H14zm19.78 0 1.39.81a2.68 2.68 0 0 1 2.12-.84 1.88 1.88 0 0 1 1.92 2c-.11.67-.63 3.58-.63 3.58H38l.65-3.43a.92.92 0 0 0-.1-.67 1 1 0 0 0-.95-.46 1.76 1.76 0 0 0-.69.14 1.6 1.6 0 0 0-.91 1.19L35.38 28h-1.54zM26.85 24l.21-1.32a5.13 5.13 0 0 0-2.06-.29c-1.42 0-3.83.91-3.83 3.29s2.52 2.39 3 2.39 1.92-.23 2.06-.52l.18-1.11a4.27 4.27 0 0 1-2.07.55 1.61 1.61 0 0 1-1.56-1.3A2.06 2.06 0 0 1 25 23.48a3.34 3.34 0 0 1 1.85.52zM40.47 22.39h1.75l.24-1.45 3.17 2.5h-1.89l-.86 4.55h-1.62l.8-4.44-1.04-.03-.55-1.13z"></path></svg>