<svg version="1.1" xmlns="http://www.w3.org/2000/svg" height="1022" width="1024" viewBox="0 0 1026 1024"><path d="M471.04 2.56c2.56-2.56 7.68-2.56 12.8-2.56h58.88c10.24 0 17.92 2.56 28.16 2.56 5.12 0 7.68 2.56 12.8 2.56v5.12h-7.68c-2.56 0-2.56 0-5.12 2.56h-12.8c-5.12 2.56-7.68 2.56-12.8 2.56-2.56 0-2.56 0-5.12 2.56h-5.12c-2.56 0-7.68 2.56-10.24 2.56-5.12 2.56-7.68 5.12-12.8 5.12-2.56 2.56-5.12 2.56-10.24 2.56-2.56 0-5.12 2.56-10.24 2.56-5.12 2.56-10.24 5.12-15.36 5.12-30.72 12.8-61.44 25.6-89.6 43.52-10.24 5.12-17.92 12.8-28.16 20.48-7.68 5.12-12.8 12.8-20.48 17.92l-25.6 25.6L281.6 181.76c-12.8 23.04-28.16 46.08-38.4 71.68-2.56 5.12-5.12 12.8-7.68 17.92-10.24 25.6-17.92 51.2-23.04 76.8 0 5.12-2.56 12.8-2.56 17.92 0 5.12-2.56 7.68-2.56 12.8s-2.56 10.24-2.56 15.36c0 5.12-2.56 12.8-2.56 17.92v69.12c2.56 7.68 0 17.92 2.56 25.6v25.6c0 2.56 0 7.68 2.56 12.8 2.56 7.68 0 15.36 2.56 25.6 0 5.12 0 10.24 2.56 15.36v33.28c-2.56 20.48-10.24 38.4-23.04 56.32-15.36 17.92-38.4 28.16-61.44 30.72H102.4c-12.8-2.56-23.04-5.12-35.84-12.8-10.24-5.12-17.92-12.8-25.6-20.48-7.68-10.24-15.36-20.48-17.92-33.28-10.24-35.84-17.92-71.68-17.92-110.08-5.12-10.24-5.12-17.92-5.12-25.6V486.4c2.56-7.68 0-17.92 0-25.6 2.56-10.24 2.56-23.04 5.12-33.28 0-5.12 2.56-10.24 2.56-17.92 15.36-79.36 51.2-158.72 102.4-220.16 7.68-5.12 12.8-12.8 17.92-17.92 10.24-12.8 23.04-23.04 33.28-33.28s17.92-17.92 30.72-25.6c12.8-12.8 28.16-23.04 43.52-33.28 15.36-10.24 30.72-17.92 48.64-25.6 25.6-12.8 53.76-23.04 81.92-30.72 7.68-2.56 17.92-5.12 25.6-7.68 5.12 0 12.8-2.56 17.92-2.56 5.12 0 7.68-2.56 10.24-2.56 5.12 0 10.24-2.56 17.92-2.56 5.12 0 10.24 0 15.36-2.56 5.12-2.56 12.8-2.56 17.92-2.56z"></path><path d="M593.92 20.48c5.12 0 10.24-2.56 17.92-2.56h17.92c53.76 7.68 107.52 30.72 153.6 58.88 7.68 5.12 15.36 10.24 25.6 15.36 38.4 25.6 71.68 58.88 102.4 94.72 20.48 25.6 40.96 53.76 56.32 81.92 15.36 30.72 30.72 64 38.4 97.28 5.12 20.48 10.24 38.4 12.8 58.88 2.56 7.68 0 12.8 2.56 20.48 2.56 7.68 0 12.8 2.56 20.48 2.56 17.92 2.56 35.84 2.56 53.76 0 10.24 0 20.48-2.56 30.72 0 7.68 0 12.8-2.56 20.48-2.56 7.68 0 15.36-2.56 20.48-5.12 30.72-12.8 61.44-23.04 92.16-5.12 17.92-12.8 35.84-23.04 51.2-2.56 7.68-5.12 12.8-10.24 17.92v2.56c-7.68 12.8-15.36 25.6-25.6 38.4-5.12 5.12-7.68 12.8-15.36 17.92-2.56-2.56-5.12-2.56-5.12-5.12 2.56-5.12 2.56-10.24 5.12-12.8 0-2.56 0-2.56 2.56-5.12 0-2.56 0-2.56 2.56-5.12v-2.56c0-2.56 2.56-7.68 2.56-10.24 5.12-12.8 7.68-25.6 10.24-38.4 0-5.12 2.56-12.8 5.12-17.92 0-7.68 2.56-12.8 2.56-20.48 0-5.12 2.56-10.24 2.56-17.92v-25.6c2.56-5.12 0-10.24 0-17.92v-12.8-23.04c-2.56 0-2.56-7.68-2.56-12.8-5.12-25.6-10.24-51.2-17.92-74.24l-2.56-2.56-7.68-23.04c0-2.56-2.56-2.56-2.56-5.12-2.56-2.56-2.56-7.68-5.12-10.24 0-2.56-2.56-2.56-2.56-5.12-10.24-23.04-25.6-43.52-40.96-64-5.12-7.68-12.8-15.36-17.92-23.04-5.12-7.68-12.8-12.8-17.92-20.48-2.56-5.12-7.68-7.68-10.24-10.24-7.68-5.12-10.24-10.24-17.92-15.36-5.12-5.12-10.24-7.68-12.8-12.8-20.48-17.92-40.96-30.72-64-46.08-7.68-5.12-15.36-7.68-23.04-12.8-2.56 0-2.56-2.56-5.12-2.56s-2.56-2.56-5.12-2.56c-7.68-5.12-17.92-10.24-25.6-12.8-2.56 0-2.56-2.56-5.12-2.56s-2.56-2.56-5.12-2.56-2.56-2.56-5.12-2.56c-10.24-5.12-20.48-7.68-28.16-12.8-10.24-5.12-20.48-7.68-28.16-12.8-5.12 0-7.68-2.56-10.24-2.56s-2.56-2.56-5.12-2.56c-2.56-2.56-7.68-2.56-10.24-5.12h-2.56c-7.68-5.12-15.36-10.24-23.04-17.92-7.68-7.68-12.8-15.36-17.92-25.6-7.68-12.8-7.68-25.6-10.24-38.4 0-5.12 2.56-10.24 2.56-17.92 5.12-20.48 12.8-38.4 28.16-53.76 15.36-10.24 30.72-17.92 46.08-23.04z"></path><path d="M481.28 294.4c7.68 0 12.8-2.56 20.48-2.56h33.28c7.68 0 12.8 2.56 20.48 2.56 5.12 0 10.24 2.56 15.36 2.56 12.8 5.12 23.04 7.68 33.28 12.8 7.68 5.12 12.8 7.68 20.48 12.8 15.36 12.8 28.16 30.72 35.84 48.64 5.12 12.8 10.24 25.6 12.8 40.96 0 5.12 2.56 12.8 2.56 17.92 0 5.12 2.56 12.8 2.56 17.92v25.6c0 2.56 2.56 5.12 2.56 7.68 5.12 7.68 10.24 17.92 15.36 25.6 10.24 23.04 20.48 46.08 25.6 69.12 2.56 7.68 0 12.8 0 20.48-2.56 2.56-5.12 5.12-7.68 5.12-12.8 0-25.6-5.12-33.28-15.36l-7.68-7.68c-5.12 5.12-7.68 12.8-10.24 17.92-5.12 10.24-12.8 20.48-17.92 33.28 5.12 5.12 12.8 5.12 17.92 10.24 7.68 5.12 12.8 12.8 17.92 17.92 0 5.12 0 12.8-5.12 15.36-7.68 7.68-20.48 12.8-30.72 15.36-7.68 2.56-20.48 2.56-30.72 5.12-12.8 2.56-28.16 0-40.96 0-10.24 0-20.48-2.56-28.16-7.68-10.24-2.56-23.04-10.24-33.28-7.68-10.24 2.56-20.48 7.68-33.28 10.24-7.68 2.56-15.36 2.56-23.04 5.12h-23.04c-7.68 0-15.36-2.56-23.04-2.56-12.8-2.56-25.6-5.12-38.4-10.24-5.12-5.12-12.8-10.24-15.36-17.92-2.56-2.56 0-7.68 2.56-10.24 5.12-10.24 15.36-17.92 28.16-20.48 2.56 0 5.12-2.56 5.12-5.12s-2.56-5.12-2.56-10.24c-7.68-10.24-12.8-23.04-17.92-33.28 0-2.56-2.56-5.12-5.12-7.68-5.12 0-5.12 2.56-7.68 5.12-7.68 7.68-20.48 15.36-30.72 15.36-2.56 0-10.24 0-10.24-5.12 0-7.68 2.56-12.8 2.56-17.92 5.12-28.16 17.92-56.32 30.72-84.48 2.56-5.12 7.68-7.68 10.24-12.8 2.56-2.56 0-7.68 0-10.24 0-7.68 2.56-12.8 2.56-20.48 2.56-7.68 0-15.36 2.56-20.48 2.56-15.36 5.12-28.16 10.24-40.96s12.8-25.6 20.48-35.84c5.12-5.12 7.68-10.24 12.8-15.36 5.12-5.12 10.24-10.24 15.36-12.8 7.68-5.12 15.36-7.68 23.04-12.8 5.12-2.56 12.8-5.12 17.92-7.68 2.56-5.12 10.24-5.12 15.36-5.12z m317.44 409.6c7.68-2.56 15.36 0 23.04 0 15.36 2.56 28.16 7.68 40.96 17.92 5.12 2.56 10.24 10.24 15.36 12.8 5.12 5.12 10.24 12.8 12.8 17.92 5.12 10.24 7.68 20.48 10.24 30.72v20.48c0 12.8-5.12 25.6-10.24 38.4-2.56 5.12-5.12 10.24-7.68 12.8-7.68 10.24-17.92 17.92-25.6 25.6-7.68 7.68-15.36 12.8-23.04 20.48-7.68 7.68-15.36 15.36-25.6 20.48-12.8 10.24-25.6 17.92-35.84 25.6-15.36 10.24-33.28 17.92-48.64 25.6-23.04 10.24-48.64 20.48-74.24 28.16-17.92 5.12-38.4 10.24-58.88 12.8-7.68 2.56-12.8 0-20.48 2.56-7.68 2.56-12.8 0-20.48 2.56-7.68 0-15.36 0-23.04 2.56-17.92 0-35.84 0-56.32-2.56-7.68-2.56-12.8 0-20.48-2.56-7.68-2.56-12.8 0-20.48-2.56-58.88-10.24-115.2-28.16-166.4-56.32-5.12-5.12-12.8-7.68-17.92-10.24-25.6-15.36-51.2-33.28-71.68-53.76-7.68-5.12-10.24-10.24-17.92-15.36-5.12-5.12-12.8-10.24-17.92-17.92-15.36-12.8-25.6-30.72-38.4-46.08-17.92-23.04-33.28-48.64-46.08-74.24-2.56-5.12-7.68-12.8-7.68-17.92l-2.56-2.56c0-2.56-2.56-5.12-2.56-7.68l2.56-5.12c5.12 2.56 7.68 7.68 12.8 12.8 5.12 7.68 12.8 12.8 15.36 17.92l17.92 17.92c7.68 5.12 15.36 15.36 23.04 20.48 5.12 2.56 10.24 7.68 15.36 12.8 20.48 15.36 43.52 30.72 66.56 40.96 7.68 5.12 17.92 7.68 25.6 12.8 7.68 2.56 17.92 7.68 25.6 10.24 10.24 2.56 20.48 7.68 30.72 7.68 5.12 2.56 12.8 2.56 17.92 5.12 5.12 0 10.24 2.56 17.92 2.56 5.12 0 10.24 2.56 15.36 2.56H358.4c7.68 2.56 15.36 2.56 23.04 0 5.12-2.56 12.8 0 20.48-2.56 5.12 0 7.68-2.56 12.8 0 7.68 0 15.36-2.56 23.04-2.56 5.12 0 10.24-2.56 15.36-2.56 10.24-2.56 23.04-5.12 33.28-7.68 15.36-2.56 30.72-10.24 46.08-12.8 10.24-5.12 20.48-7.68 28.16-12.8 20.48-7.68 40.96-17.92 61.44-30.72 7.68-5.12 15.36-10.24 23.04-12.8l23.04-15.36 23.04-15.36c7.68-2.56 12.8-10.24 17.92-12.8 12.8-7.68 25.6-17.92 35.84-25.6 7.68-2.56 12.8-7.68 20.48-10.24 10.24 2.56 20.48-2.56 33.28-2.56z"></path></svg>