<svg version="1.1" xmlns="http://www.w3.org/2000/svg" fill-rule="evenodd" clip-rule="evenodd" height="1024" width="1024" viewBox="0 0 1024 1024"><path d="M512-238.77154284C97.39982212-238.77154284-238.77154284 97.39982212-238.77154284 512c0 414.76776082 336.17136493 750.77154284 750.77154284 750.77154284 414.76776082 0 750.77154284-336.00378201 750.77154284-750.77154284 0-414.60017788-336.00378201-750.77154284-750.77154284-750.77154284zM123.54275977 615.90141886c-2.84890987-9.88739309-13.07146883-42.06331634-16.08796164-85.13213029-2.34616108-33.8517526 0.50274881-72.89857616 7.70881495-105.40966527 23.12644485-104.0690018 73.90407375-167.58293367 119.98938051-210.98691348 116.9728877-109.59923862 262.09970827-114.79430957 328.46254997-104.73933355 3.01649281 0.50274882 2.68132694 3.01649281 3.01649281 4.02199039-194.06103717 27.48360111-276.00909174 161.04719924-296.11904379 291.59430458-11.39563949 68.03867107-3.01649281 120.49212931 1e-8 174.45383397 3.51924159 59.65952438-40.05232114 89.15412071-83.79146683 84.79696442-35.02483313-3.18407574-57.48094625-28.99184753-63.17876599-48.59905077z m560.56491312-40.55506994c-1.00549761 3.68682452-3.18407574 5.19507094-4.8599051 6.03298562-12.40113709 5.19507094-29.82976221-3.68682452-38.04132593-12.9038859-1.50824641 3.51924161-12.40113709 25.30502299-16.9258763 32.17592327 9.88739309 2.68132694 16.92587628 7.70881495 23.29402777 16.59071045 3.68682452 5.02748801 4.69232214 10.55772482 3.0164928 15.75279573-2.34616108 7.20606615-9.88739309 13.57421762-20.9478667 17.42862512-44.57706036 15.58521282-86.30521084 5.02748799-97.70085033-0.50274881-8.21156374-3.8544075-17.9313739-4.69232214-27.81876698-0.50274879-9.04947843 3.85440749-45.91772382 18.09895683-96.02502098 2.01099519-12.23355417-3.85440749-20.44511791-10.55772482-22.95886193-18.60170561-1.34066346-4.0219904-1.84341228-10.22255897 3.51924159-17.26104219 6.20056854-8.54672961 15.25004697-13.57421762 21.61819846-14.74729815 0.50274881-0.16758294 0.67033173-0.16758294 1.0054976-0.33516586-0.16758294-0.16758294-0.33516586-0.50274881-0.67033172-0.83791468-3.18407574-5.02748799-13.74180057-25.13744005-17.09345925-32.17592324-11.22805655 11.56322243-23.29402777 16.25554457-36.86824541 14.0769664-0.83791468-0.16758294-3.35165866-0.83791468-4.52473919-4.0219904-4.0219904-10.89289069 12.40113709-71.05516388 34.35450141-97.86843327-0.67033173-28.99184753 3.18407574-80.77497402 37.03582831-115.79980715 22.4561131-22.95886189 53.96170465-34.52208433 93.84644287-34.18691848 40.21990407-0.33516586 72.06066148 11.39563949 94.51677458 34.35450139 33.85175261 34.8572502 37.87374301 86.13762791 37.03582835 114.79430957 17.42862511 23.7967766 39.54957232 80.10464229 35.19241608 96.52776979z m118.81629995 212.99790868c-6.87090027 7.70881495-28.99184753 33.18142086-64.18426359 58.31886093-27.48360111 19.60720323-62.34085132 37.53857713-93.84644285 48.43146783C543.84075741 929.44908778 463.06578337 919.2265288 402.06559553 902.46823543c-154.51146483-42.56606515-232.60511194-156.85762591-260.59146186-225.56662871-1.17308055-2.84890986 1.17308054-3.85440749 2.0109952-4.69232213 124.51411971 151.15980617 281.20416269 151.49497203 403.2045384 100.54976019 64.01668065-25.64018885 104.40416766-60.16227318 148.98122803-90.99753298 48.93421664-33.85175261 97.03051859-12.23355417 116.13497304 27.31601819 15.08246403 31.67317446 4.85990507 64.18426361-8.8818955 79.26672761z m60.665022-74.90957133c-7.54123201 13.40663469-14.74729817 23.7967766-20.61270085 31.00284271-1.50824641 1.84341228-2.84890987 3.68682452-4.35715627 5.36265391-2.0109952 2.34616108-3.8544075 0.83791468-5.02748803 0.67033172 69.37933454-183.33572943-8.37914669-319.24548864-113.11848022-399.68529681-34.68966727-27.31601819-67.53592227-44.40947741-99.37667966-59.32435848-16.75829337-7.70881495-33.51658673-14.74729817-50.27488009-22.45611314-7.20606615-3.35165866-13.57421762-7.20606615-19.10445445-11.39563948-38.71165769-27.65118406-40.55506994-72.89857616-18.43412269-105.07449939 19.77478619-28.99184753 52.95620705-33.51658673 73.06615908-31.00284273 10.39014189 1.34066346 43.2363969 7.87639788 82.45080336 25.80777177 30.66767685 14.07696642 63.51393187 35.52758193 88.6513719 57.48094624 80.10464229 70.21724922 111.61023382 145.29440348 127.36302959 206.62975721 32.51108913 126.69269785-3.68682452 237.12985113-41.22540167 301.98444647z" fill="#2c2c2c"></path></svg>