<svg xmlns="http://www.w3.org/2000/svg" enable-background="new 0 0 24 24" viewBox="0 0 24 24" id="tencent-qq"><path d="M2.768,14.761l-0.077,0.275c-1.012,3.283-0.684,4.643-0.434,4.673c0.535,0.065,2.084-2.472,2.084-2.472c0,1.469,0.749,3.387,2.372,4.771c-0.606,0.188-1.351,0.479-1.828,0.835c-0.43,0.32-0.376,0.646-0.298,0.778c0.34,0.578,5.83,0.369,7.414,0.189c1.586,0.18,7.075,0.389,7.415-0.189c0.077-0.132,0.131-0.458-0.298-0.778c-0.479-0.356-1.222-0.646-1.829-0.836c1.622-1.384,2.371-3.302,2.371-4.771c0,0,1.549,2.537,2.084,2.472c0.249-0.03,0.576-1.39-0.434-4.673c-0.327-1.041-0.596-1.791-0.889-2.531l0.093,0.267l-1.069-2.695c0.001-0.032,0.014-0.562,0.014-0.836C19.458,4.632,17.303,0,12,0C6.697,0,4.542,4.632,4.542,9.241c0,0.274,0.013,0.804,0.014,0.836l-1.07,2.695C3.286,13.248,3.016,13.999,2.768,14.761z M14.028,3c0.72,0.032,1.269,0.912,1.231,1.964c-0.039,1.051-0.653,1.878-1.372,1.846s-1.27-0.912-1.231-1.964C12.695,3.794,13.309,2.968,14.028,3z M9.972,3c0.719-0.033,1.333,0.794,1.372,1.846c0.04,1.052-0.512,1.931-1.231,1.963c-0.72,0.033-1.334-0.794-1.372-1.845C8.702,3.913,9.253,3.033,9.972,3z M7.462,8.294c0.192-0.43,2.128-0.908,4.525-0.908h0.026c2.396,0,4.333,0.479,4.525,0.908c0.009,0.018,0.014,0.039,0.014,0.061c0,0.031-0.01,0.059-0.026,0.083c-0.161,0.238-2.312,1.416-4.512,1.416h-0.026c-2.201,0-4.35-1.178-4.512-1.416C7.459,8.415,7.449,8.386,7.449,8.355C7.449,8.334,7.454,8.313,7.462,8.294L7.462,8.294z M6.357,13.486c0.315,0.063,0.632,0.122,0.949,0.176v3.506c0,0,1.643,0.334,3.288,0.103v-3.225c0.484,0.027,0.951,0.04,1.393,0.034h0.025c1.663,0.021,3.68-0.204,5.632-0.594c0.145,0.934,0.225,2.08,0.146,3.43c-0.218,3.676-2.381,5.987-5.722,6.021h-0.136c-3.339-0.033-5.504-2.345-5.721-6.021C6.132,15.566,6.213,14.42,6.357,13.486z"></path><polygon points="7.463 8.293 7.463 8.294 7.463 8.294"></polygon><path d="M10.494 5.804c.31-.041.537-.409.503-.825s-.311-.72-.623-.679c-.31.04-.536.409-.503.824C9.904 5.541 10.183 5.844 10.494 5.804zM14.457 5.156c.077.037.219.042.286-.146.035-.095.025-.165-.009-.214-.023-.033-.132-.118-.368-.176-.896-.22-1.329.384-1.392.499-.04.072-.012.176.056.227.067.051.138.037.177-.006C13.782 4.712 14.406 5.132 14.457 5.156z"></path></svg>