<?xml version="1.0" standalone="no"?><!DOCTYPE svg PUBLIC "-//W3C//DTD SVG 1.1//EN" "http://www.w3.org/Graphics/SVG/1.1/DTD/svg11.dtd"><svg t="1611588653080" class="icon" viewBox="0 0 1024 1024" version="1.1" xmlns="http://www.w3.org/2000/svg" p-id="4028" xmlns:xlink="http://www.w3.org/1999/xlink" width="200" height="200"><defs><style type="text/css"></style></defs><path d="M296.913455 581.213091l82.059636 272.011636c6.050909 20.014545 24.389818 33.559273 44.916364 33.838546l5.632-0.232728c20.852364-2.187636 37.562182-17.687273 41.704727-37.794909l0.791273-5.585454 21.876363-262.237091h64.372364l21.969454 262.237091 0.791273 5.585454a47.616 47.616 0 0 0 90.298182 9.495273l1.954909-5.306182 82.013091-272.011636h102.772364a93.090909 93.090909 0 0 1 92.299636 80.756364l34.257454 256.60509A93.090909 93.090909 0 0 1 892.276364 1024H159.325091a93.090909 93.090909 0 0 1-92.253091-105.425455l34.257455-256.60509a93.090909 93.090909 0 0 1 92.25309-80.756364h103.33091zM528.477091 0c132.002909 0 239.010909 106.356364 239.010909 237.521455 0 131.165091-107.008 288.395636-239.010909 288.395636-132.049455 0-239.057455-157.230545-239.057455-288.395636C289.419636 106.356364 396.474182 0 528.477091 0z" p-id="4029"></path></svg>