<?xml version="1.0" standalone="no"?><!DOCTYPE svg PUBLIC "-//W3C//DTD SVG 1.1//EN" "http://www.w3.org/Graphics/SVG/1.1/DTD/svg11.dtd"><svg t="1611588644413" class="icon" viewBox="0 0 1024 1024" version="1.1" xmlns="http://www.w3.org/2000/svg" p-id="3889" xmlns:xlink="http://www.w3.org/1999/xlink" width="200" height="200"><defs><style type="text/css"></style></defs><path d="M504.123077 47.261538C244.184615 47.261538 31.507692 259.938462 31.507692 519.876923s212.676923 472.615385 472.615385 472.615385 472.615385-212.676923 472.615385-472.615385S764.061538 47.261538 504.123077 47.261538z m0 897.969231C269.390769 945.230769 78.769231 754.609231 78.769231 519.876923S269.390769 94.523077 504.123077 94.523077s425.353846 190.621538 425.353846 425.353846-190.621538 425.353846-425.353846 425.353846z" p-id="3890"></path><path d="M661.661538 409.6c0-86.646154-70.892308-157.538462-157.538461-157.538462s-157.538462 70.892308-157.538462 157.538462c0 53.563077 26.781538 102.4 69.316923 130.756923-77.193846 34.658462-129.181538 110.276923-132.332307 200.073846-1.575385 29.932308 45.686154 29.932308 47.261538 0 3.150769-96.098462 77.193846-170.141538 173.292308-173.292307 86.646154 0 157.538462-70.892308 157.538461-157.538462z m-157.538461 110.276923c-61.44 0-110.276923-48.836923-110.276923-110.276923s48.836923-110.276923 110.276923-110.276923 110.276923 48.836923 110.276923 110.276923-48.836923 110.276923-110.276923 110.276923zM645.907692 571.864615c-23.630769-20.48-56.713846 14.178462-33.083077 33.083077 40.96 34.658462 63.015385 81.92 64.59077 135.483077 0 29.932308 47.261538 29.932308 47.261538 0-1.575385-66.166154-28.356923-126.030769-78.769231-168.566154z" p-id="3891"></path></svg>