<?xml version="1.0" standalone="no"?><!DOCTYPE svg PUBLIC "-//W3C//DTD SVG 1.1//EN" "http://www.w3.org/Graphics/SVG/1.1/DTD/svg11.dtd"><svg t="1611595537739" class="icon" viewBox="0 0 1024 1024" version="1.1" xmlns="http://www.w3.org/2000/svg" p-id="37308" xmlns:xlink="http://www.w3.org/1999/xlink" width="200" height="200"><defs><style type="text/css"></style></defs><path d="M665.6 409.6a66.048 66.048 0 1 0 66.048 66.048A66.048 66.048 0 0 0 665.6 409.6zM929.792 983.552h-85.504c8.704-95.744 16.384-419.84-61.44-512a122.88 122.88 0 0 1-60.928 105.472 126.464 126.464 0 0 1-55.296 15.36 336.384 336.384 0 0 1-96.768 389.12H480.256a14.848 14.848 0 0 0-14.848 14.848v9.728a14.848 14.848 0 0 0 14.848 14.848h449.536a14.848 14.848 0 0 0 14.848-14.848v-7.68a14.848 14.848 0 0 0-14.848-14.848z" p-id="37309"></path><path d="M550.912 506.368a182.784 182.784 0 0 1 0-24.064A117.76 117.76 0 0 1 665.6 363.008a123.904 123.904 0 0 1 24.064 0 109.056 109.056 0 0 1 22.016 6.656l174.08-176.128a51.2 51.2 0 0 0 0-71.68L779.264 15.872a51.2 51.2 0 0 0-71.68 0L228.864 500.224a51.2 51.2 0 0 0 0 72.192l107.008 108.032a51.2 51.2 0 0 0 71.68 0l150.016-153.6a114.176 114.176 0 0 1-6.656-20.48z m-256 32.256a20.992 20.992 0 0 1-20.992-20.992 20.992 20.992 0 0 1 41.472 0 20.992 20.992 0 0 1-19.968 20.992zM110.08 549.376a15.36 15.36 0 0 0-20.992 0l-5.12 5.12a14.848 14.848 0 0 0 0 20.992l256 256a14.848 14.848 0 0 0 20.992 0l5.12-5.12a15.36 15.36 0 0 0 0-20.992z" p-id="37310"></path></svg>