<?xml version="1.0" standalone="no"?><!DOCTYPE svg PUBLIC "-//W3C//DTD SVG 1.1//EN" "http://www.w3.org/Graphics/SVG/1.1/DTD/svg11.dtd"><svg t="1611595022604" class="icon" viewBox="0 0 1078 1024" version="1.1" xmlns="http://www.w3.org/2000/svg" p-id="23876" xmlns:xlink="http://www.w3.org/1999/xlink" width="210.546875" height="200"><defs><style type="text/css"></style></defs><path d="M89.723717 0h327.324709c-6.928178 1.713011-14.084758 1.370409-21.152515 1.268897H116.738538c-9.440595-0.063445-18.88119 0.215713-28.296407-0.228401L89.723717 0z" p-id="23877"></path><path d="M417.048426 0h7.384982c18.145229 1.751078 34.514002 11.826121 46.327435 25.352565 8.615812 9.148748 14.160892 20.518067 21.330161 30.732689 14.427361 21.21596 28.600942 42.622255 42.19083 64.383841 2.969219 4.517274 5.189789 9.960843 10.049665 12.815862 11.775366 7.15658 25.669789 10.430335 39.386568 10.265378 140.428848 0.012689 280.870384 0.038067 421.299232-0.012689 18.246741 0.659827 36.899529 6.560198 50.489417 19.109591 14.516183 13.412243 21.457051 33.511574 21.786964 52.963767-0.012689 235.202776 0.012689 470.405551-0.012689 705.608327-0.114201 7.067757-0.329913 14.198959 1.281586 21.139826v12.435192c-1.370409 17.916828-6.319108 36.721884-19.414126 49.766147-12.980818 13.32342-32.255366 18.310186-50.375217 18.195985-304.103891-0.063445-608.220471 0-912.337051-0.038067-10.582602-0.380669-21.177893 0.837472-31.760495 0.203023-18.272119-1.433854-36.036679-10.620669-46.822305-25.606344C5.887683 980.984387 1.85259 960.453631 0.431425 940.646146c1.091252-6.001884 1.002429-12.09259 0.86285-18.157918-0.101512-278.802082 0.088823-557.591475-0.101512-836.393556C2.969219 61.693779 14.148203 37.483222 32.978637 21.571252 48.433804 8.590434 68.533135 2.385527 88.442131 1.040496c9.415217 0.444114 18.855812 0.164957 28.296407 0.228401h279.157373c7.067757 0.101512 14.224337 0.444114 21.152515-1.268897M225.102354 357.321437c-8.526989 1.687633-16.27995 7.169269-20.492689 14.80803-5.227856 8.996481-5.227856 20.771846 0.025378 29.755638 5.151722 9.339083 15.645502 15.404411 26.304238 15.252144 15.163321 0.291846 29.006989-12.562082 29.945973-27.674647 1.065874-11.420074-5.100967-23.081239-15.099876-28.677075-6.179529-3.629046-13.666022-4.745675-20.683024-3.46409m153.523867-0.038066c-11.22974 1.903346-20.809913 11.10285-22.992417 22.307211-1.35772 7.714895-0.900917 16.153061 3.134176 23.055862 5.050211 9.034548 15.264833 14.846097 25.631723 14.478116 145.555192-0.012689 291.097695-0.012689 436.640198 0 9.732441 0.279157 19.376059-4.859876 24.591227-13.069641 5.0629-7.65145 5.697348-17.510781 3.590979-26.240793-3.235688-12.320991-15.429789-21.418984-28.182206-20.987558-142.560595 0-285.12119 0.012689-427.681785 0-4.910632 0.050756-9.859331-0.291846-14.731895 0.456803M225.013532 558.822305c-10.201933 1.865279-18.99539 9.542107-22.497547 19.261859-3.603668 9.681685-1.801834 21.177893 4.796431 29.171945 6.116084 7.829095 16.254572 12.156035 26.151971 11.204362 12.016456-0.850161 22.852838-9.74513 26.228104-21.266716 3.375266-10.595291 0.101512-22.852838-7.943296-30.47891-6.953556-6.763222-17.231623-9.859331-26.735663-7.89254m153.498488-0.063445c-11.686543 1.966791-21.418984 11.9657-23.131995 23.69031-0.964362 7.093135-0.482181 14.68114 3.058042 21.051003 4.999455 9.326394 15.366344 15.4171 25.961636 15.150632 145.555192 0 291.097695 0.012689 436.652887 0 12.879306 0.342602 25.225675-8.983792 28.296406-21.507806 1.916035-8.539678 1.345031-18.107162-3.565601-25.580967-5.215167-8.336654-14.92223-13.551822-24.756183-13.298042-145.098389-0.025378-290.196778 0.025378-435.295167-0.025378-2.410905 0.038067-4.834498 0.088823-7.220025 0.520248M223.770012 759.384188c-12.95544 2.931152-22.992416 15.252144-23.043172 28.575564-0.507559 12.409814 7.588005 24.540471 19.223792 28.880099 11.585031 4.656853 25.822057 1.078563 33.790731-8.526989 7.181958-8.209765 9.25026-20.403866 5.227856-30.529665-5.100967-13.716778-20.97487-22.167633-35.199207-18.399009m153.498489-0.088822c-5.215167 1.154696-10.049665 3.882825-13.830979 7.664138-12.82855 12.562082-11.140917 36.823395 4.022404 46.873061 6.687088 4.999455 15.328278 5.342057 23.347707 5.050211 143.385378-0.038067 286.770756-0.012689 430.143445-0.012689 10.278067 0.291846 20.403866-5.418191 25.492144-14.351227 3.717869-6.090706 4.339628-13.501066 3.667113-20.467311-1.078563-10.772937-8.933036-20.505378-19.211103-23.906022-6.445998-2.245948-13.374176-1.509988-20.073953-1.624189-138.728525 0.012689-277.457051 0.012689-416.198265 0-5.786171 0.088823-11.648476-0.406047-17.358513 0.774028z" p-id="23878"></path><path d="M0 86.132739l1.192763-0.038067c0.190335 278.802082 0 557.591475 0.101512 836.393556 0.139579 6.065328 0.228401 12.156035-0.86285 18.157918L0 939.174226V86.132739z" p-id="23879"></path><path d="M1077.29368 215.611004l1.268897 0.088823v726.65933c-1.611499-6.940867-1.395787-14.072069-1.281586-21.139826 0.025378-235.202776 0-470.405551 0.012689-705.608327z" p-id="23880"></path><path d="M64.675688 1022.921437c10.582602 0.634449 21.177893-0.583693 31.760495-0.203023 304.11658 0.038067 608.23316-0.025378 912.337051 0.038067l0.012689 1.243519H64.637621l0.038067-1.078563z" p-id="23881"></path></svg>